# Blender 4.3.2
# www.blender.org
mtllib cannon.mtl
o Cube
v 0.600000 1.000000 -1.000000
v 0.600000 -1.000000 -1.000000
v 0.600000 1.000000 1.000000
v 0.600000 -1.000000 1.000000
v -1.000000 1.000000 -1.000000
v -1.000000 -1.000000 -1.000000
v -1.000000 1.000000 1.000000
v -1.000000 -1.000000 1.000000
vn -0.0000 1.0000 -0.0000
vn -0.0000 -0.0000 1.0000
vn -1.0000 -0.0000 -0.0000
vn -0.0000 -1.0000 -0.0000
vn 1.0000 -0.0000 -0.0000
vn -0.0000 -0.0000 -1.0000
vt 0.625000 0.500000
vt 0.875000 0.500000
vt 0.875000 0.750000
vt 0.625000 0.750000
vt 0.375000 0.750000
vt 0.625000 1.000000
vt 0.375000 1.000000
vt 0.375000 0.000000
vt 0.625000 0.000000
vt 0.625000 0.250000
vt 0.375000 0.250000
vt 0.125000 0.500000
vt 0.375000 0.500000
vt 0.125000 0.750000
s 0
usemtl Material
f 1/1/1 5/2/1 7/3/1 3/4/1
f 4/5/2 3/4/2 7/6/2 8/7/2
f 8/8/3 7/9/3 5/10/3 6/11/3
f 6/12/4 2/13/4 4/5/4 8/14/4
f 2/13/5 1/1/5 3/4/5 4/5/5
f 6/11/6 5/10/6 1/1/6 2/13/6
o Cube.001
v 0.610000 -0.750000 0.750000
v 0.610000 0.750000 0.750000
v 0.610000 -0.750000 -0.750000
v 0.610000 0.750000 -0.750000
v 1.010000 -0.750000 0.750000
v 1.010000 0.750000 0.750000
v 1.010000 -0.750000 -0.750000
v 1.010000 0.750000 -0.750000
v 0.610000 -0.750000 0.000000
v 0.610000 0.750000 0.000000
v 1.010000 -0.750000 0.000000
v 1.010000 0.750000 0.000000
v 0.610000 0.750000 -0.375000
v 1.010000 -0.750000 -0.375000
v 0.610000 -0.750000 -0.375000
v 1.010000 0.750000 -0.375000
v 0.610000 -0.750000 0.375000
v 1.010000 0.750000 0.375000
v 0.610000 0.750000 0.375000
v 1.010000 -0.750000 0.375000
v 0.610000 0.000000 0.750000
v 0.610000 0.000000 -0.750000
v 1.010000 0.000000 -0.750000
v 1.010000 0.000000 0.750000
v 0.610000 0.000000 0.000000
v 0.610000 0.000000 -0.375000
v 0.610000 0.000000 0.375000
v 0.610000 0.375000 0.750000
v 0.610000 0.375000 -0.750000
v 1.010000 0.375000 -0.750000
v 1.010000 0.375000 0.750000
v 0.610000 0.375000 0.000000
v 0.610000 0.375000 -0.375000
v 0.610000 0.375000 0.375000
v 0.610000 -0.375000 -0.750000
v 1.010000 -0.375000 -0.750000
v 1.010000 -0.375000 0.750000
v 0.610000 -0.375000 0.000000
v 0.610000 -0.375000 -0.375000
v 0.610000 -0.375000 0.375000
v 0.610000 -0.375000 0.750000
v 0.610000 -0.750000 0.562500
v 1.010000 0.750000 0.562500
v 0.610000 0.750000 0.562500
v 1.010000 -0.750000 0.562500
v 0.610000 0.000000 0.562500
v 1.010000 0.000000 0.562500
v 0.610000 0.375000 0.562500
v 1.010000 0.375000 0.562500
v 1.010000 -0.375000 0.562500
v 0.610000 -0.375000 0.562500
v 0.610000 0.750000 -0.562500
v 1.010000 -0.750000 -0.562500
v 0.610000 -0.750000 -0.562500
v 1.010000 0.750000 -0.562500
v 1.010000 0.000000 -0.562500
v 0.610000 0.000000 -0.562500
v 1.010000 0.375000 -0.562500
v 0.610000 0.375000 -0.562500
v 0.610000 -0.375000 -0.562500
v 1.010000 -0.375000 -0.562500
v 0.610000 0.562500 0.750000
v 0.610000 0.562500 -0.750000
v 1.010000 0.562500 -0.750000
v 1.010000 0.562500 0.750000
v 1.010000 0.562500 0.000000
v 0.610000 0.562500 0.000000
v 1.010000 0.562500 -0.375000
v 0.610000 0.562500 -0.375000
v 0.610000 0.562500 0.375000
v 1.010000 0.562500 0.375000
v 0.610000 0.562500 0.562500
v 1.010000 0.562500 0.562500
v 1.010000 0.562500 -0.562500
v 0.610000 0.562500 -0.562500
v 0.610000 -0.562500 -0.750000
v 1.010000 -0.562500 -0.750000
v 1.010000 -0.562500 0.750000
v 1.010000 -0.562500 0.000000
v 0.610000 -0.562500 0.000000
v 1.010000 -0.562500 -0.375000
v 0.610000 -0.562500 -0.375000
v 0.610000 -0.562500 0.375000
v 1.010000 -0.562500 0.375000
v 0.610000 -0.562500 0.750000
v 0.610000 -0.562500 0.562500
v 1.010000 -0.562500 0.562500
v 1.010000 -0.562500 -0.562500
v 0.610000 -0.562500 -0.562500
vn -1.0000 -0.0000 -0.0000
vn -0.0000 -0.0000 -1.0000
vn 1.0000 -0.0000 -0.0000
vn -0.0000 -0.0000 1.0000
vn -0.0000 -1.0000 -0.0000
vn -0.0000 1.0000 -0.0000
vt 0.593750 0.218750
vt 0.625000 0.218750
vt 0.625000 0.250000
vt 0.593750 0.250000
vt 0.625000 0.500000
vt 0.593750 0.500000
vt 0.593750 0.718750
vt 0.625000 0.718750
vt 0.625000 0.750000
vt 0.593750 0.750000
vt 0.625000 1.000000
vt 0.593750 1.000000
vt 0.125000 0.718750
vt 0.375000 0.718750
vt 0.375000 0.750000
vt 0.125000 0.750000
vt 0.875000 0.718750
vt 0.875000 0.750000
vt 0.625000 0.562500
vt 0.875000 0.562500
vt 0.875000 0.625000
vt 0.625000 0.625000
vt 0.125000 0.562500
vt 0.375000 0.562500
vt 0.375000 0.625000
vt 0.125000 0.625000
vt 0.593750 0.562500
vt 0.593750 0.625000
vt 0.593750 0.062500
vt 0.625000 0.062500
vt 0.625000 0.125000
vt 0.593750 0.125000
vt 0.593750 0.531250
vt 0.625000 0.531250
vt 0.125000 0.531250
vt 0.375000 0.531250
vt 0.875000 0.531250
vt 0.625000 0.187500
vt 0.593750 0.187500
vt 0.593750 0.031250
vt 0.625000 0.031250
vt 0.875000 0.687500
vt 0.625000 0.687500
vt 0.375000 0.687500
vt 0.125000 0.687500
vt 0.593750 0.687500
vt 0.437500 0.031250
vt 0.500000 0.031250
vt 0.500000 0.062500
vt 0.437500 0.062500
vt 0.437500 0.125000
vt 0.500000 0.125000
vt 0.500000 0.187500
vt 0.437500 0.187500
vt 0.437500 0.750000
vt 0.500000 0.750000
vt 0.500000 1.000000
vt 0.437500 1.000000
vt 0.437500 0.718750
vt 0.500000 0.718750
vt 0.437500 0.250000
vt 0.500000 0.250000
vt 0.500000 0.500000
vt 0.437500 0.500000
vt 0.437500 0.218750
vt 0.500000 0.218750
vt 0.562500 0.031250
vt 0.562500 0.062500
vt 0.562500 0.125000
vt 0.562500 0.187500
vt 0.562500 0.750000
vt 0.562500 1.000000
vt 0.562500 0.718750
vt 0.562500 0.250000
vt 0.562500 0.500000
vt 0.562500 0.218750
vt 0.406250 0.218750
vt 0.406250 0.250000
vt 0.406250 0.500000
vt 0.406250 0.718750
vt 0.406250 0.750000
vt 0.406250 1.000000
vt 0.406250 0.062500
vt 0.406250 0.125000
vt 0.406250 0.187500
vt 0.406250 0.031250
vt 0.406250 0.000000
vt 0.437500 0.000000
vt 0.500000 0.000000
vt 0.562500 0.000000
vt 0.593750 0.000000
vt 0.625000 0.000000
vt 0.437500 0.531250
vt 0.406250 0.531250
vt 0.562500 0.531250
vt 0.500000 0.531250
vt 0.875000 0.500000
vt 0.125000 0.500000
vt 0.375000 0.500000
vt 0.375000 0.187500
vt 0.375000 0.218750
vt 0.406250 0.687500
vt 0.375000 0.000000
vt 0.375000 0.031250
vt 0.406250 0.625000
vt 0.375000 0.062500
vt 0.375000 0.125000
vt 0.406250 0.562500
vt 0.375000 1.000000
vt 0.375000 0.250000
vt 0.000000 0.000000
s 0
f 83/15/7 60/16/7 12/17/7 71/18/7
f 71/18/8 12/17/8 16/19/8 72/20/8
f 81/21/9 51/22/9 14/23/9 73/24/9
f 73/24/10 14/23/10 10/25/10 70/26/10
f 50/27/11 53/28/11 13/29/11 9/30/11
f 51/22/12 52/31/12 10/32/12 14/23/12
f 24/33/12 21/34/12 18/35/12 20/36/12
f 23/37/11 22/38/11 19/39/11 17/40/11
f 76/41/9 24/33/9 20/36/9 74/42/9
f 78/43/7 27/44/7 18/45/7 75/46/7
f 82/47/9 63/48/9 24/33/9 76/41/9
f 62/49/11 61/50/11 22/38/11 23/37/11
f 63/48/12 60/51/12 21/34/12 24/33/12
f 75/46/7 18/45/7 21/52/7 77/53/7
f 80/54/7 52/55/7 27/44/7 78/43/7
f 20/36/12 18/35/12 27/56/12 26/57/12
f 17/40/11 19/39/11 28/58/11 25/59/11
f 74/42/9 20/36/9 26/57/9 79/60/9
f 59/61/7 54/62/7 35/63/7 48/64/7
f 46/65/7 33/66/7 34/67/7 47/68/7
f 48/64/7 35/63/7 33/66/7 46/65/7
f 45/69/10 32/70/10 29/71/10 49/72/10
f 58/73/9 55/74/9 32/70/9 45/69/9
f 43/75/8 30/76/8 31/77/8 44/78/8
f 68/79/7 65/80/7 30/76/7 43/75/7
f 54/62/7 56/81/7 42/82/7 35/63/7
f 33/66/7 40/83/7 41/84/7 34/67/7
f 35/63/7 42/82/7 40/83/7 33/66/7
f 32/70/10 39/85/10 36/86/10 29/71/10
f 55/74/9 57/87/9 39/85/9 32/70/9
f 30/76/8 37/88/8 38/89/8 31/77/8
f 65/80/7 67/90/7 37/88/7 30/76/7
f 97/91/7 68/79/7 43/75/7 84/92/7
f 84/92/8 43/75/8 44/78/8 85/93/8
f 95/94/9 58/73/9 45/69/9 86/95/9
f 86/95/10 45/69/10 49/72/10 93/96/10
f 91/97/7 48/64/7 46/65/7 88/98/7
f 88/98/7 46/65/7 47/68/7 90/99/7
f 94/100/7 59/61/7 48/64/7 91/97/7
f 93/101/7 49/102/7 59/61/7 94/100/7
f 29/103/7 36/104/7 56/81/7 54/62/7
f 49/102/7 29/103/7 54/62/7 59/61/7
f 70/105/7 10/106/7 52/55/7 80/54/7
f 26/57/12 27/56/12 52/31/12 51/22/12
f 25/59/11 28/58/11 53/28/11 50/27/11
f 79/60/9 26/57/9 51/22/9 81/21/9
f 85/93/9 44/78/9 69/107/9 96/108/9
f 90/99/7 47/68/7 68/79/7 97/91/7
f 34/67/7 41/84/7 67/90/7 65/80/7
f 31/77/9 38/89/9 66/109/9 64/110/9
f 47/68/7 34/67/7 65/80/7 68/79/7
f 44/78/9 31/77/9 64/110/9 69/107/9
f 16/19/12 12/111/12 60/51/12 63/48/12
f 11/112/11 15/113/11 61/50/11 62/49/11
f 72/20/9 16/19/9 63/48/9 82/47/9
f 77/53/7 21/52/7 60/16/7 83/15/7
f 41/84/7 77/53/7 83/15/7 67/90/7
f 38/89/9 72/20/9 82/47/9 66/109/9
f 36/104/7 70/105/7 80/54/7 56/81/7
f 56/81/7 80/54/7 78/43/7 42/82/7
f 40/83/7 75/46/7 77/53/7 41/84/7
f 42/82/7 78/43/7 75/46/7 40/83/7
f 39/85/10 73/24/10 70/26/10 36/86/10
f 57/87/9 81/21/9 73/24/9 39/85/9
f 37/88/8 71/18/8 72/20/8 38/89/8
f 67/90/7 83/15/7 71/18/7 37/88/7
f 23/114/7 90/99/7 97/91/7 62/115/7
f 15/113/9 85/93/9 96/108/9 61/50/9
f 28/58/9 92/116/9 95/94/9 53/28/9
f 9/117/7 93/101/7 94/100/7 50/118/7
f 19/39/9 87/119/9 92/116/9 28/58/9
f 50/118/7 94/100/7 91/97/7 25/120/7
f 17/121/7 88/98/7 90/99/7 23/114/7
f 61/50/9 96/108/9 89/122/9 22/38/9
f 25/120/7 91/97/7 88/98/7 17/121/7
f 22/38/9 89/122/9 87/119/9 19/39/9
f 13/29/10 86/95/10 93/96/10 9/123/10
f 53/28/9 95/94/9 86/95/9 13/29/9
f 11/124/8 84/92/8 85/93/8 15/113/8
f 62/115/7 97/91/7 84/92/7 11/124/7
f 81/125/11 80/125/11 83/125/11 82/125/11
f 82/125/10 83/125/10 97/125/10 96/125/10
f 94/125/12 95/125/12 96/125/12 97/125/12
f 80/125/8 81/125/8 95/125/8 94/125/8
